<svg xmlns="http://www.w3.org/2000/svg" xmlns:xlink="http://www.w3.org/1999/xlink" viewBox="0 0 671.03 185.71">
  <defs>
    <style>
      .cls-1 {
        fill: url(#linear-gradient);
      }

      .cls-2 {
        fill: url(#linear-gradient-2);
      }

      .cls-3 {
        fill: url(#linear-gradient-3);
      }

      .cls-4 {
        fill: url(#linear-gradient-4);
      }
    </style>
    <linearGradient id="linear-gradient" x1="107.27" x2="107.27" y2="185.71" gradientUnits="userSpaceOnUse">
      <stop offset="0" stop-color="#fff"/>
      <stop offset="1" stop-color="#bdbdbd"/>
    </linearGradient>
    <linearGradient id="linear-gradient-2" x1="249.29" x2="249.29" y2="185.71" xlink:href="#linear-gradient"/>
    <linearGradient id="linear-gradient-3" x1="393.91" x2="393.91" y2="185.71" xlink:href="#linear-gradient"/>
    <linearGradient id="linear-gradient-4" x1="579.18" x2="579.18" y2="185.71" xlink:href="#linear-gradient"/>
  </defs>
  <title>Asset 1</title>
  <g id="Layer_2" data-name="Layer 2">
    <g id="Layer_1-2" data-name="Layer 1">
      <g>
        <path class="cls-1" d="M0,185.71,39.22,0h52.2l43,85.64L152.55,0h62L175.33,185.71H122.56L79.88,100.35,62,185.71Z"/>
        <path class="cls-2" d="M198.69,185.71,237.9,0h62L260.68,185.71Z"/>
        <path class="cls-3" d="M284,185.71,323.26,0h62l-12.4,58.83L433.7,0h70.07L423.32,76.71l46.43,109H404l-27.11-69.79-20.19,18.74-10.67,51Z"/>
        <path class="cls-4" d="M487.33,185.71,526.55,0H671l-9.52,45.85H579L573.85,69.5h71.8l-9.8,47H564l-5.19,23.36h82.47l-9.52,45.85Z"/>
      </g>
    </g>
  </g>
</svg>
